<?xml version="1.0" encoding="UTF-8"?>
<svg version="1.1" xmlns="http://www.w3.org/2000/svg" width="513" height="512">
<path d="M0 0 C1.3096875 -0.06058594 2.619375 -0.12117188 3.96875 -0.18359375 C14.32018997 0.49828475 22.73200754 7.787827 29.64971924 14.86569214 C30.48893347 15.69977982 31.32814769 16.5338675 32.19279265 17.39323056 C34.49122444 19.68355892 36.77584316 21.98665495 39.05501437 24.29612064 C41.52647991 26.7937076 44.01548241 29.27371645 46.50230408 31.7559967 C50.7992421 36.04980181 55.08513302 40.35437877 59.36353302 44.66665268 C65.54923066 50.90129289 71.75160138 57.1191281 77.95805284 63.33310045 C88.02923383 73.41738505 98.08696694 83.51497111 108.13623047 93.62109375 C117.89315838 103.43316885 127.65642256 113.23886779 137.42822266 123.03613281 C138.03143008 123.64091657 138.6346375 124.24570034 139.25612393 124.86881088 C142.2825392 127.90305687 145.30907891 130.9371787 148.33568048 133.97123885 C173.40977313 159.10744409 198.46203609 184.26530896 223.5 209.4375 C226.61232833 208.05444822 228.72134372 206.46134263 231.11617374 204.05066204 C231.82100016 203.34611753 232.52582657 202.64157302 233.25201136 201.91567868 C234.01882823 201.13894341 234.7856451 200.36220813 235.57569885 199.56193542 C236.3962329 198.73887683 237.21676696 197.91581823 238.06216568 197.06781846 C240.33863968 194.78244249 242.61055754 192.49264535 244.88069689 190.20098007 C247.33044964 187.73025896 249.78606733 185.2653802 252.24110413 182.7999115 C256.49570255 178.52588701 260.74695046 174.24855358 264.99627876 169.96928978 C271.71731776 163.20149217 278.44874057 156.44407535 285.18186951 149.68830872 C287.48622432 147.37595078 289.79051187 145.06352582 292.09477901 142.75108051 C292.67066743 142.17315364 293.24655584 141.59522677 293.83989542 140.99978697 C300.39541321 134.42078253 306.94879181 127.83964912 313.5012207 121.25756836 C314.10017747 120.65590673 314.69913423 120.0542451 315.3162412 119.4343513 C325.01415967 109.69210713 334.7043377 99.94219202 344.39255369 90.19030055 C354.3450427 80.17296214 364.30909361 70.16722191 374.28305095 60.17125875 C380.43103709 54.0088472 386.56939956 47.83715554 392.69561189 41.6530963 C396.89884904 37.4117706 401.11302233 33.18151748 405.33583546 28.95968267 C407.76924031 26.52615217 410.19754523 24.08806023 412.61273956 21.63644409 C415.23989179 18.97483509 417.88507819 16.33250972 420.53541565 13.6940155 C421.66221838 12.53895084 421.66221838 12.53895084 422.8117848 11.36055154 C428.85243518 5.40939718 436.05868057 0.59476521 444.72265625 -0.19140625 C455.17065901 -0.01071851 463.96650391 1.22569794 471.8984375 8.59375 C478.15583483 15.79738791 480.67760087 22.545283 480.9375 31.9375 C480.99808594 33.2471875 481.05867187 34.556875 481.12109375 35.90625 C480.43921525 46.25768997 473.149673 54.66950754 466.07180786 61.58721924 C465.23772018 62.42643347 464.4036325 63.26564769 463.54426944 64.13029265 C461.25394108 66.42872444 458.95084505 68.71334316 456.64137936 70.99251437 C454.1437924 73.46397991 451.66378355 75.95298241 449.1815033 78.43980408 C444.88769819 82.7367421 440.58312123 87.02263302 436.27084732 91.30103302 C430.03620711 97.48673066 423.8183719 103.68910138 417.60439955 109.89555284 C407.52011495 119.96673383 397.42252889 130.02446694 387.31640625 140.07373047 C377.50433115 149.83065838 367.69863221 159.59392256 357.90136719 169.36572266 C357.29658343 169.96893008 356.69179966 170.5721375 356.06868912 171.19362393 C353.03444313 174.2200392 350.0003213 177.24657891 346.96626115 180.27318048 C321.83005591 205.34727313 296.67219104 230.39953609 271.5 255.4375 C272.88009657 258.54066305 274.46442303 260.64715877 276.86842728 263.03526306 C277.9190939 264.08635254 277.9190939 264.08635254 278.99098611 265.15867615 C280.14922942 266.30204185 280.14922942 266.30204185 281.33087158 267.46850586 C282.14914106 268.28425079 282.96741054 269.09999573 283.81047606 269.94046021 C286.08251994 272.20360229 288.35898463 274.46218777 290.6373179 276.71899486 C293.09374338 279.15445125 295.54432597 281.59577326 297.99549866 284.03651428 C302.24496632 288.26655545 306.49774281 292.49324597 310.75244904 296.71801758 C317.48271921 303.40152208 324.20260275 310.09541628 330.9208374 316.79101562 C333.22060973 319.08278477 335.52044906 321.37448667 337.82030869 323.66616821 C338.39509896 324.23892003 338.96988923 324.81167184 339.56209739 325.40177977 C346.1055814 331.92177663 352.65119368 338.43963496 359.19775391 344.95654297 C360.09536696 345.85009873 360.09536696 345.85009873 361.01111361 346.76170611 C370.69771034 356.40399027 380.39198395 366.03852748 390.08824125 375.67109549 C400.05022642 385.56820604 410.00059225 395.47689945 419.94118571 405.39549541 C426.06827506 411.5081673 432.20463383 417.61122373 438.3533918 423.70209998 C442.5718473 427.88243454 446.77919706 432.07373764 450.97814617 436.2736643 C453.3976244 438.69301702 455.82163515 441.10729521 458.25922585 443.5084095 C460.90738003 446.12204355 463.5361784 448.75378067 466.16119385 451.390625 C466.92443317 452.13502303 467.68767249 452.87942106 468.47404027 453.64637661 C474.60844585 459.87322769 480.36041207 467.83194824 481.2265625 476.79296875 C481.0251202 484.39354184 480.70917284 490.8738211 476.5 497.4375 C476.0875 498.13230469 475.675 498.82710938 475.25 499.54296875 C471.25724571 505.58881545 465.52773412 509.70453632 458.6640625 512.0703125 C455.44691794 512.61618179 452.25440357 512.78494494 449 512.875 C447.6903125 512.93558594 446.380625 512.99617187 445.03125 513.05859375 C434.67981003 512.37671525 426.26799246 505.087173 419.35028076 498.00930786 C418.51106653 497.17522018 417.67185231 496.3411325 416.80720735 495.48176944 C414.50877556 493.19144108 412.22415684 490.88834505 409.94498563 488.57887936 C407.47352009 486.0812924 404.98451759 483.60128355 402.49769592 481.1190033 C398.2007579 476.82519819 393.91486698 472.52062123 389.63646698 468.20834732 C383.45076934 461.97370711 377.24839862 455.7558719 371.04194716 449.54189955 C360.97076617 439.45761495 350.91303306 429.36002889 340.86376953 419.25390625 C331.10684162 409.44183115 321.34357744 399.63613221 311.57177734 389.83886719 C310.96856992 389.23408343 310.3653625 388.62929966 309.74387607 388.00618912 C306.7174608 384.97194313 303.69092109 381.9378213 300.66431952 378.90376115 C275.59022687 353.76755591 250.53796391 328.60969104 225.5 303.4375 C222.38767167 304.82055178 220.27865628 306.41365737 217.88382626 308.82433796 C217.17899984 309.52888247 216.47417343 310.23342698 215.74798864 310.95932132 C214.98117177 311.73605659 214.2143549 312.51279187 213.42430115 313.31306458 C212.6037671 314.13612317 211.78323304 314.95918177 210.93783432 315.80718154 C208.66136032 318.09255751 206.38944246 320.38235465 204.11930311 322.67401993 C201.66955036 325.14474104 199.21393267 327.6096198 196.75889587 330.0750885 C192.50429745 334.34911299 188.25304954 338.62644642 184.00372124 342.90571022 C177.28268224 349.67350783 170.55125943 356.43092465 163.81813049 363.18669128 C161.51377568 365.49904922 159.20948813 367.81147418 156.90522099 370.12391949 C156.32933257 370.70184636 155.75344416 371.27977323 155.16010458 371.87521303 C148.60458679 378.45421747 142.05120819 385.03535088 135.4987793 391.61743164 C134.89982253 392.21909327 134.30086577 392.8207549 133.6837588 393.4406487 C123.98584033 403.18289287 114.2956623 412.93280798 104.60744631 422.68469945 C94.6549573 432.70203786 84.69090639 442.70777809 74.71694905 452.70374125 C68.56896291 458.8661528 62.43060044 465.03784446 56.30438811 471.2219037 C52.10115096 475.4632294 47.88697767 479.69348252 43.66416454 483.91531733 C41.23075969 486.34884783 38.80245477 488.78693977 36.38726044 491.23855591 C33.76010821 493.90016491 31.11492181 496.54249028 28.46458435 499.1809845 C27.71338253 499.95102761 26.96218071 500.72107072 26.1882152 501.51444846 C20.14756482 507.46560282 12.94131943 512.28023479 4.27734375 513.06640625 C-6.17065901 512.88571851 -14.96650391 511.64930206 -22.8984375 504.28125 C-29.15583483 497.07761209 -31.67760087 490.329717 -31.9375 480.9375 C-31.99808594 479.6278125 -32.05867188 478.318125 -32.12109375 476.96875 C-31.43921525 466.61731003 -24.149673 458.20549246 -17.07180786 451.28778076 C-16.23772018 450.44856653 -15.4036325 449.60935231 -14.54426944 448.74470735 C-12.25394108 446.44627556 -9.95084505 444.16165684 -7.64137936 441.88248563 C-5.1437924 439.41102009 -2.66378355 436.92201759 -0.1815033 434.43519592 C4.11230181 430.1382579 8.41687877 425.85236698 12.72915268 421.57396698 C18.96379289 415.38826934 25.1816281 409.18589862 31.39560045 402.97944716 C41.47988505 392.90826617 51.57747111 382.85053306 61.68359375 372.80126953 C71.49566885 363.04434162 81.30136779 353.28107744 91.09863281 343.50927734 C91.70341657 342.90606992 92.30820034 342.3028625 92.93131088 341.68137607 C95.96555687 338.6549608 98.9996787 335.62842109 102.03373885 332.60181952 C127.16994409 307.52772687 152.32780896 282.47546391 177.5 257.4375 C176.11694822 254.32517167 174.52384263 252.21615628 172.11316204 249.82132626 C171.40861753 249.11649984 170.70407302 248.41167343 169.97817868 247.68548864 C169.20144341 246.91867177 168.42470813 246.1518549 167.62443542 245.36180115 C166.80137683 244.5412671 165.97831823 243.72073304 165.13031846 242.87533432 C162.84494249 240.59886032 160.55514535 238.32694246 158.26348007 236.05680311 C155.79275896 233.60705036 153.3278802 231.15143267 150.8624115 228.69639587 C146.58838701 224.44179745 142.31105358 220.19054954 138.03178978 215.94122124 C131.26399217 209.22018224 124.50657535 202.48875943 117.75080872 195.75563049 C115.43845078 193.45127568 113.12602582 191.14698813 110.81358051 188.84272099 C110.23565364 188.26683257 109.65772677 187.69094416 109.06228697 187.09760458 C102.48328253 180.54208679 95.90214912 173.98870819 89.32006836 167.4362793 C88.71840673 166.83732253 88.1167451 166.23836577 87.4968513 165.6212588 C77.75460713 155.92334033 68.00469202 146.2331623 58.25280055 136.54494631 C48.23546214 126.5924573 38.22972191 116.62840639 28.23375875 106.65444905 C22.0713472 100.50646291 15.89965554 94.36810044 9.7155963 88.24188811 C5.4742706 84.03865096 1.24401748 79.82447767 -2.97781733 75.60166454 C-5.41134783 73.16825969 -7.84943977 70.73995477 -10.30105591 68.32476044 C-12.96266491 65.69760821 -15.60499028 63.05242181 -18.2434845 60.40208435 C-19.01352761 59.65088253 -19.78357072 58.89968071 -20.57694846 58.1257152 C-26.52810282 52.08506482 -31.34273479 44.87881943 -32.12890625 36.21484375 C-31.94821851 25.76684099 -30.71180206 16.97099609 -23.34375 9.0390625 C-16.14011209 2.78166517 -9.392217 0.25989913 0 0 Z " fill="#000000" transform="translate(31.5,-0.4375)"/>
</svg>
