<?xml version="1.0" encoding="UTF-8"?>
<svg version="1.1" xmlns="http://www.w3.org/2000/svg" width="704" height="512">
<path d="M0 0 C1.66769975 -0.00525911 1.66769975 -0.00525911 3.36909041 -0.01062447 C7.1151494 -0.01996916 10.86105397 -0.01500717 14.60711956 -0.01015663 C17.31175792 -0.01389134 20.01638463 -0.01841216 22.72101897 -0.02388728 C28.61209975 -0.03419769 34.50314766 -0.03702926 40.39423656 -0.03497505 C49.15455938 -0.03192779 57.91484576 -0.04024294 66.67516149 -0.0507243 C83.23069336 -0.07007859 99.78621286 -0.07569305 116.34175471 -0.07683842 C129.12519561 -0.07775705 141.90863164 -0.08187133 154.69207096 -0.08823967 C158.37003872 -0.09003472 162.04800649 -0.09181435 165.72597426 -0.09358943 C166.6402932 -0.09403152 167.55461215 -0.09447362 168.49663772 -0.09492911 C194.21898249 -0.10723959 219.94132556 -0.11513002 245.6636734 -0.11424255 C246.63370667 -0.1142114 247.60373994 -0.11418024 248.60316815 -0.11414814 C253.51984786 -0.11398192 258.43652756 -0.11378384 263.35320727 -0.11357872 C264.32970087 -0.11353883 265.30619448 -0.11349894 266.3122788 -0.11345784 C268.2869871 -0.11337697 270.26169541 -0.11329337 272.23640371 -0.11320706 C302.96397305 -0.11198138 333.69149827 -0.12699704 364.41905499 -0.15435219 C398.93052971 -0.1850632 433.44197543 -0.20228529 467.95346469 -0.20042574 C471.63237552 -0.20027648 475.31128635 -0.20017907 478.99019718 -0.20011711 C479.89605809 -0.2000938 480.80191899 -0.20007049 481.73523023 -0.20004648 C496.32222141 -0.1999849 510.90917432 -0.21276462 525.49615411 -0.22998164 C540.15238916 -0.24692281 554.80856813 -0.24892385 569.46480755 -0.235763 C578.17462742 -0.22836381 586.88427712 -0.23206065 595.59407902 -0.25164768 C601.41107627 -0.26362525 607.22794994 -0.26108145 613.04494147 -0.24670668 C616.36002636 -0.23892461 619.67451171 -0.23964747 622.98961661 -0.25362138 C626.56211305 -0.26768597 630.13372608 -0.25719918 633.70619202 -0.24050903 C635.24683062 -0.25541357 635.24683062 -0.25541357 636.81859323 -0.27061921 C646.39638967 -0.17572488 653.27976435 2.89714003 660.25279522 9.39789391 C667.41205638 16.83852341 669.46035719 23.94739903 669.40538311 34.21234703 C669.14942672 44.12297839 665.05793651 50.50650402 658.04185772 57.25726891 C650.59530075 63.63540683 643.6717778 64.55265061 634.08371544 64.51453781 C632.9719156 64.51804389 631.86011577 64.52154996 630.71462503 64.52516228 C626.96856604 64.53450697 623.22266147 64.52954498 619.47659588 64.52469444 C616.77195752 64.52842915 614.0673308 64.53294997 611.36269647 64.53842509 C605.47161569 64.54873551 599.58056778 64.55156708 593.68947887 64.54951286 C584.92915606 64.5464656 576.16886968 64.55478075 567.40855395 64.56526211 C550.85302207 64.5846164 534.29750258 64.59023086 517.74196073 64.59137623 C504.95851983 64.59229486 492.17508379 64.59640914 479.39164448 64.60277748 C475.71367672 64.60457253 472.03570895 64.60635216 468.35774118 64.60812724 C466.98626276 64.60879038 466.98626276 64.60879038 465.58707772 64.60946692 C439.86473295 64.6217774 414.14238988 64.62966784 388.42004204 64.62878036 C387.45000877 64.62874921 386.4799755 64.62871805 385.48054729 64.62868595 C380.56386758 64.62851973 375.64718788 64.62832165 370.73050817 64.62811653 C369.75401457 64.62807664 368.77752096 64.62803675 367.77143664 64.62799565 C365.79672833 64.62791478 363.82202003 64.62783118 361.84731173 64.62774487 C331.11974238 64.62651919 300.39221717 64.64153486 269.66466045 64.66889 C235.15318573 64.69960101 200.64174001 64.7168231 166.13025075 64.71496356 C162.45133992 64.71481429 158.77242909 64.71471688 155.09351826 64.71465492 C154.18765735 64.71463161 153.28179645 64.71460831 152.34848521 64.71458429 C137.76149403 64.71452271 123.17454112 64.72730243 108.58756133 64.74451945 C93.93132628 64.76146062 79.27514731 64.76346166 64.61890789 64.75030081 C55.90908802 64.74290162 47.19943832 64.74659846 38.48963642 64.76618549 C32.67263917 64.77816306 26.8557655 64.77561926 21.03877397 64.76124449 C17.72368908 64.75346242 14.40920373 64.75418528 11.09409883 64.7681592 C7.52160239 64.78222378 3.94998936 64.77173699 0.37752342 64.75504684 C-0.64956898 64.7649832 -1.67666138 64.77491956 -2.73487779 64.78515702 C-12.31267423 64.69026269 -19.19604892 61.61739778 -26.16907978 55.11664391 C-33.32834094 47.67601441 -35.37664175 40.56713878 -35.32166767 30.30219078 C-35.06571128 20.39155943 -30.97422107 14.00803379 -23.95814228 7.25726891 C-16.51158532 0.87913098 -9.58806236 -0.03811279 0 0 Z " fill="#000000" transform="translate(34.95814228057861,223.74273109436035)"/>
<path d="M0 0 C1.66769975 -0.00525911 1.66769975 -0.00525911 3.36909041 -0.01062447 C7.1151494 -0.01996916 10.86105397 -0.01500717 14.60711956 -0.01015663 C17.31175792 -0.01389134 20.01638463 -0.01841216 22.72101897 -0.02388728 C28.61209975 -0.03419769 34.50314766 -0.03702926 40.39423656 -0.03497505 C49.15455938 -0.03192779 57.91484576 -0.04024294 66.67516149 -0.0507243 C83.23069336 -0.07007859 99.78621286 -0.07569305 116.34175471 -0.07683842 C129.12519561 -0.07775705 141.90863164 -0.08187133 154.69207096 -0.08823967 C158.37003872 -0.09003472 162.04800649 -0.09181435 165.72597426 -0.09358943 C166.6402932 -0.09403152 167.55461215 -0.09447362 168.49663772 -0.09492911 C194.21898249 -0.10723959 219.94132556 -0.11513002 245.6636734 -0.11424255 C246.63370667 -0.1142114 247.60373994 -0.11418024 248.60316815 -0.11414814 C253.51984786 -0.11398192 258.43652756 -0.11378384 263.35320727 -0.11357872 C264.32970087 -0.11353883 265.30619448 -0.11349894 266.3122788 -0.11345784 C268.2869871 -0.11337697 270.26169541 -0.11329337 272.23640371 -0.11320706 C302.96397305 -0.11198138 333.69149827 -0.12699704 364.41905499 -0.15435219 C398.93052971 -0.1850632 433.44197543 -0.20228529 467.95346469 -0.20042574 C471.63237552 -0.20027648 475.31128635 -0.20017907 478.99019718 -0.20011711 C479.89605809 -0.2000938 480.80191899 -0.20007049 481.73523023 -0.20004648 C496.32222141 -0.1999849 510.90917432 -0.21276462 525.49615411 -0.22998164 C540.15238916 -0.24692281 554.80856813 -0.24892385 569.46480755 -0.235763 C578.17462742 -0.22836381 586.88427712 -0.23206065 595.59407902 -0.25164768 C601.41107627 -0.26362525 607.22794994 -0.26108145 613.04494147 -0.24670668 C616.36002636 -0.23892461 619.67451171 -0.23964747 622.98961661 -0.25362138 C626.56211305 -0.26768597 630.13372608 -0.25719918 633.70619202 -0.24050903 C635.24683062 -0.25541357 635.24683062 -0.25541357 636.81859323 -0.27061921 C646.39638967 -0.17572488 653.27976435 2.89714003 660.25279522 9.39789391 C667.41205638 16.83852341 669.46035719 23.94739903 669.40538311 34.21234703 C669.14942672 44.12297839 665.05793651 50.50650402 658.04185772 57.25726891 C650.59530075 63.63540683 643.6717778 64.55265061 634.08371544 64.51453781 C632.9719156 64.51804389 631.86011577 64.52154996 630.71462503 64.52516228 C626.96856604 64.53450697 623.22266147 64.52954498 619.47659588 64.52469444 C616.77195752 64.52842915 614.0673308 64.53294997 611.36269647 64.53842509 C605.47161569 64.54873551 599.58056778 64.55156708 593.68947887 64.54951286 C584.92915606 64.5464656 576.16886968 64.55478075 567.40855395 64.56526211 C550.85302207 64.5846164 534.29750258 64.59023086 517.74196073 64.59137623 C504.95851983 64.59229486 492.17508379 64.59640914 479.39164448 64.60277748 C475.71367672 64.60457253 472.03570895 64.60635216 468.35774118 64.60812724 C466.98626276 64.60879038 466.98626276 64.60879038 465.58707772 64.60946692 C439.86473295 64.6217774 414.14238988 64.62966784 388.42004204 64.62878036 C387.45000877 64.62874921 386.4799755 64.62871805 385.48054729 64.62868595 C380.56386758 64.62851973 375.64718788 64.62832165 370.73050817 64.62811653 C369.75401457 64.62807664 368.77752096 64.62803675 367.77143664 64.62799565 C365.79672833 64.62791478 363.82202003 64.62783118 361.84731173 64.62774487 C331.11974238 64.62651919 300.39221717 64.64153486 269.66466045 64.66889 C235.15318573 64.69960101 200.64174001 64.7168231 166.13025075 64.71496356 C162.45133992 64.71481429 158.77242909 64.71471688 155.09351826 64.71465492 C154.18765735 64.71463161 153.28179645 64.71460831 152.34848521 64.71458429 C137.76149403 64.71452271 123.17454112 64.72730243 108.58756133 64.74451945 C93.93132628 64.76146062 79.27514731 64.76346166 64.61890789 64.75030081 C55.90908802 64.74290162 47.19943832 64.74659846 38.48963642 64.76618549 C32.67263917 64.77816306 26.8557655 64.77561926 21.03877397 64.76124449 C17.72368908 64.75346242 14.40920373 64.75418528 11.09409883 64.7681592 C7.52160239 64.78222378 3.94998936 64.77173699 0.37752342 64.75504684 C-0.64956898 64.7649832 -1.67666138 64.77491956 -2.73487779 64.78515702 C-12.31267423 64.69026269 -19.19604892 61.61739778 -26.16907978 55.11664391 C-33.32834094 47.67601441 -35.37664175 40.56713878 -35.32166767 30.30219078 C-35.06571128 20.39155943 -30.97422107 14.00803379 -23.95814228 7.25726891 C-16.51158532 0.87913098 -9.58806236 -0.03811279 0 0 Z " fill="#000000" transform="translate(34.95814228057861,-0.25726890563964844)"/>
<path d="M0 0 C0.85179029 -0.00350607 1.70358057 -0.00701215 2.58118269 -0.01062447 C5.44277302 -0.01994741 8.30416024 -0.01501282 11.16575909 -0.01015663 C13.23517466 -0.01389243 15.30458882 -0.01849367 17.37400073 -0.02388728 C23.06667529 -0.03614126 28.75929119 -0.03585398 34.45197594 -0.03349853 C40.58912352 -0.03309097 46.72625214 -0.04412365 52.86339092 -0.05361366 C64.88930696 -0.0702376 76.91519805 -0.07574973 88.94112257 -0.07683842 C98.71445685 -0.0777574 108.48778477 -0.08187355 118.26111698 -0.08823967 C121.07406939 -0.09003475 123.88702181 -0.09181438 126.69997424 -0.09358943 C127.39927658 -0.09403152 128.09857893 -0.09447362 128.81907226 -0.09492911 C148.48985708 -0.10723795 168.16063969 -0.11513019 187.83142853 -0.11424255 C188.57310132 -0.1142114 189.3147741 -0.11418024 190.07892183 -0.11414814 C193.83805294 -0.11398192 197.59718406 -0.11378384 201.35631517 -0.11357872 C202.10289607 -0.11353883 202.84947697 -0.11349894 203.61868153 -0.11345784 C205.12845005 -0.11337697 206.63821857 -0.11329337 208.14798709 -0.11320706 C231.63869231 -0.11198149 255.1293398 -0.12699565 278.6200285 -0.15435219 C305.00989692 -0.18507233 331.39972742 -0.20228474 357.78961486 -0.20042574 C360.60351034 -0.20027648 363.41740582 -0.20017907 366.23130131 -0.20011711 C366.92415704 -0.2000938 367.61701277 -0.20007049 368.33086413 -0.20004648 C379.48119718 -0.19998493 390.63148011 -0.21275717 401.78179825 -0.22998164 C412.9877972 -0.24693413 424.19372367 -0.24857177 435.39973477 -0.235763 C441.47068152 -0.22922118 447.54144661 -0.22916012 453.61237621 -0.2464695 C459.16953929 -0.26215124 464.72637591 -0.25938654 470.28353079 -0.24190123 C472.29426687 -0.23882056 474.30502702 -0.24250371 476.31573472 -0.25362138 C479.04966545 -0.26773717 481.78245022 -0.25716039 484.51634216 -0.24050903 C485.29636537 -0.25044539 486.07638857 -0.26038175 486.88004884 -0.27061921 C495.59128203 -0.15850364 502.38130411 3.5464338 508.65787029 9.39789391 C515.81713145 16.83852341 517.86543227 23.94739903 517.81045818 34.21234703 C517.55450179 44.12297839 513.46301159 50.50650402 506.44693279 57.25726891 C499.82399171 62.92996192 493.62021943 64.56011633 484.8966589 64.51453781 C484.04516821 64.51804389 483.19367752 64.52154996 482.31638408 64.52516228 C479.45580304 64.53448521 476.59542518 64.52955063 473.73483562 64.52469444 C471.66613275 64.52843025 469.59743128 64.53303149 467.52873206 64.53842509 C461.83798811 64.5506791 456.14730284 64.55039179 450.45654869 64.54803634 C444.32142699 64.54762878 438.18632426 64.55866151 432.05121136 64.56815147 C420.02897032 64.58477567 408.00675424 64.59028756 395.98450473 64.59137623 C386.21356272 64.59229525 376.44262707 64.59641157 366.67168713 64.60277748 C363.85931199 64.60457257 361.04693684 64.60635219 358.23456168 64.60812724 C357.18581689 64.60879038 357.18581689 64.60879038 356.11588534 64.60946692 C336.44867391 64.62177595 316.78146468 64.62966799 297.11424923 64.62878036 C296.37270166 64.62874921 295.63115409 64.62871805 294.86713538 64.62868595 C291.10865223 64.62851973 287.35016907 64.62832165 283.59168592 64.62811653 C282.47201137 64.6280567 282.47201137 64.6280567 281.32971713 64.62799565 C279.82021355 64.62791478 278.31070996 64.62783118 276.80120638 64.62774487 C253.317205 64.62651943 229.83326139 64.64153091 206.34927654 64.66889 C179.96562446 64.69961456 153.58201033 64.71682226 127.19833922 64.71496356 C124.38470666 64.71481429 121.57107409 64.71471688 118.75744152 64.71465492 C117.71825906 64.71461996 117.71825906 64.71461996 116.65808301 64.71458429 C105.51166677 64.71452276 94.36530069 64.72729186 83.21889937 64.74451945 C72.01512353 64.76147749 60.81142019 64.76310545 49.60763219 64.75030081 C43.53858678 64.74376173 37.46972308 64.74368809 31.40069485 64.76100731 C25.8440963 64.77670119 20.28782409 64.77391182 14.73123369 64.75643905 C12.7218257 64.75336105 10.71239358 64.75703151 8.70301405 64.7681592 C-4.25746475 64.83517493 -14.86020321 64.62230423 -24.79916096 55.24555016 C-31.09831997 48.1046327 -34.09602903 39.41469905 -33.86556721 29.93695641 C-32.79953889 20.79576356 -28.56371326 12.29637138 -21.37728596 6.50336266 C-14.43751429 1.66301771 -8.48148848 -0.04429765 0 0 Z " fill="#000000" transform="translate(186.55306720733643,447.74273109436035)"/>
</svg>
